<svg width="96" height="16" viewBox="0 0 96 16" fill="none" xmlns="http://www.w3.org/2000/svg">
<path d="M0 1.14443H2.59697V7.1967H10.1898V1.14443H12.8088V16H10.1898V9.79367H2.59697V16H0V1.14443Z" fill="#1F2937"/>
<path d="M17.3891 4.37964H24.3657C27.2708 4.37964 28.4152 6.00825 28.4152 8.20908V13.6671C28.4152 15.3398 27.9751 16 26.0163 16H20.5803C17.8293 16 16.6848 14.6575 16.6848 12.4567C16.6848 10.3439 17.7412 9.11142 20.6023 9.11142H26.1264V8.23109C26.1264 7.32875 25.6202 6.62448 24.3437 6.62448H17.3891V4.37964ZM25.4881 13.7332C25.9503 13.7332 26.1264 13.5571 26.1264 13.1389V10.9601H20.6463C19.4139 10.9601 18.9737 11.4663 18.9737 12.3246C18.9737 13.1829 19.4359 13.7332 20.6023 13.7332H25.4881Z" fill="#1F2937"/>
<path d="M34.0026 4.37964H38.8004C42.7399 4.37964 44.6546 6.25034 44.6546 9.46355V16H42.2997V9.46355C42.2997 7.63686 41.2433 6.62448 38.8004 6.62448H34.993C34.7949 6.62448 34.7068 6.73453 34.7068 6.95461V16H32.374V6.18432C32.374 4.81981 32.8361 4.37964 34.0026 4.37964Z" fill="#1F2937"/>
<path d="M52.4022 4.37964H56.1656C58.9166 4.37964 60.083 5.70014 60.083 7.94498C60.083 10.0798 59.0046 11.2902 56.1436 11.2902H50.6195V12.1265C50.6195 13.0509 51.1257 13.7332 52.4022 13.7332H59.5108V16H52.4022C49.4971 16 48.3526 14.3714 48.3526 12.1706V8.20908C48.3526 6.00825 49.4971 4.37964 52.4022 4.37964ZM50.6195 8.23109V9.46355H56.0775C57.332 9.46355 57.7942 8.93535 57.7942 8.07703C57.7942 7.1967 57.288 6.62448 56.1436 6.62448H52.4022C51.1257 6.62448 50.6195 7.32875 50.6195 8.23109Z" fill="#E59D00"/>
<path d="M62.7316 4.37964H65.6807L69.5322 8.58322L73.5377 4.37964H76.4427L70.9847 10.1678L76.5088 16H73.5377L69.4441 11.5323L65.2626 16H62.3575L68.0136 9.94773L62.7316 4.37964Z" fill="#1F2937"/>
<path d="M88.8219 4.37964H95.2703V6.62448H88.8439C87.7655 6.62448 87.3253 7.06465 87.3253 7.94498C87.3253 8.75929 87.6774 9.19945 88.9759 9.19945H91.7049C94.9182 9.19945 95.7325 10.674 95.7325 12.4787C95.7325 14.5475 94.6541 16 91.925 16H85.1685V13.7332H91.925C93.0034 13.7332 93.4436 13.359 93.4436 12.4567C93.4436 11.5323 92.9594 11.1582 91.793 11.1582H89.0419C85.8287 11.1582 85.0364 9.55158 85.0364 7.76891C85.0364 5.67813 86.1148 4.37964 88.8219 4.37964Z" fill="#1F2937"/>
<path d="M80.332 5.40234C80.332 4.85006 80.7797 4.40234 81.332 4.40234H81.5329C82.0851 4.40234 82.5329 4.85006 82.5329 5.40234V14.9567C82.5329 15.509 82.0851 15.9567 81.5329 15.9567H81.332C80.7797 15.9567 80.332 15.509 80.332 14.9567V5.40234Z" fill="#1F2937"/>
<circle cx="81.4324" cy="2.20198" r="1.10041" fill="#E59D00"/>
</svg>
